<svg width="267" height="205" viewBox="0 0 267 205" fill="none" xmlns="http://www.w3.org/2000/svg">
<path d="M34.929 93.4557V114.833C34.929 119.056 33.7853 122.289 31.4981 124.532C29.2108 126.775 26.1537 127.897 22.3269 127.897C18.7201 127.897 15.3771 126.731 12.2981 124.4L14.7393 120.507C17.2025 122.311 19.6438 123.212 22.063 123.212C27.3414 123.212 29.9805 120.573 29.9805 115.295V112.128C29.2328 113.579 28.1331 114.745 26.6816 115.625C25.23 116.46 23.6245 116.878 21.8651 116.878C18.6101 116.878 15.9269 115.757 13.8156 113.513C11.7482 111.226 10.7146 108.389 10.7146 105.002C10.7146 101.571 11.7482 98.734 13.8156 96.4907C15.9269 94.2034 18.6101 93.0598 21.8651 93.0598C25.1201 93.0598 27.7592 94.4014 29.7826 97.0845V93.4557H34.929ZM22.7228 112.194C24.7902 112.194 26.4836 111.49 27.8032 110.082C29.1228 108.631 29.7826 106.849 29.7826 104.738C29.7826 102.583 29.1008 100.801 27.7372 99.3938C26.4176 97.9423 24.7242 97.2165 22.6568 97.2165C20.5895 97.2165 18.918 97.9643 17.6424 99.4598C16.4108 100.911 15.795 102.671 15.795 104.738C15.795 106.849 16.4328 108.631 17.7084 110.082C18.984 111.49 20.6554 112.194 22.7228 112.194ZM65.2484 107.971H45.9825C46.1144 109.731 46.9282 111.16 48.4237 112.26C49.9192 113.359 51.6567 113.909 53.6361 113.909C56.7591 113.909 59.0904 112.942 60.6299 111.006L63.599 114.239C60.9598 117.01 57.5069 118.396 53.2402 118.396C49.7213 118.396 46.7742 117.23 44.399 114.899C42.0237 112.568 40.8361 109.489 40.8361 105.662C40.8361 101.923 42.0457 98.888 44.4649 96.5567C46.8842 94.2254 49.8093 93.0598 53.2402 93.0598C56.6711 93.0598 59.5302 94.0935 61.8175 96.1608C64.1048 98.2282 65.2484 100.977 65.2484 104.408V107.971ZM60.1021 103.88C60.1021 101.901 59.4643 100.34 58.1887 99.1959C56.957 98.0522 55.3515 97.4804 53.3722 97.4804C51.3928 97.4804 49.6553 98.0742 48.1598 99.2619C46.7082 100.449 45.9825 101.989 45.9825 103.88H60.1021ZM82.2646 113.777C84.5079 113.777 86.3553 113.03 87.8068 111.534C89.3024 110.038 90.0501 108.103 90.0501 105.728C90.0501 103.353 89.3024 101.417 87.8068 99.9216C86.3553 98.4261 84.5079 97.6784 82.2646 97.6784C80.0213 97.6784 78.1738 98.4261 76.7223 99.9216C75.2707 101.417 74.545 103.353 74.545 105.728C74.545 108.103 75.2707 110.016 76.7223 111.468C78.1738 113.008 80.0213 113.777 82.2646 113.777ZM82.2646 118.396C78.5697 118.396 75.4907 117.186 73.0274 114.767C70.5642 112.304 69.3326 109.291 69.3326 105.728C69.3326 102.165 70.5642 99.1739 73.0274 96.7546C75.4907 94.2914 78.5697 93.0598 82.2646 93.0598C85.9594 93.0598 89.0384 94.2914 91.5017 96.7546C93.9649 99.1739 95.1965 102.165 95.1965 105.728C95.1965 109.159 93.9649 112.15 91.5017 114.701C89.0384 117.164 85.9594 118.396 82.2646 118.396ZM106.191 118H101.045V83.7567H106.191V118ZM125.015 113.777C127.258 113.777 129.105 113.03 130.557 111.534C132.052 110.038 132.8 108.103 132.8 105.728C132.8 103.353 132.052 101.417 130.557 99.9216C129.105 98.4261 127.258 97.6784 125.015 97.6784C122.771 97.6784 120.924 98.4261 119.472 99.9216C118.021 101.417 117.295 103.353 117.295 105.728C117.295 108.103 118.021 110.016 119.472 111.468C120.924 113.008 122.771 113.777 125.015 113.777ZM125.015 118.396C121.32 118.396 118.241 117.186 115.777 114.767C113.314 112.304 112.083 109.291 112.083 105.728C112.083 102.165 113.314 99.1739 115.777 96.7546C118.241 94.2914 121.32 93.0598 125.015 93.0598C128.709 93.0598 131.788 94.2914 134.252 96.7546C136.715 99.1739 137.947 102.165 137.947 105.728C137.947 109.159 136.715 112.15 134.252 114.701C131.788 117.164 128.709 118.396 125.015 118.396ZM142.145 105.728C142.145 102.033 143.421 98.9979 145.972 96.6227C148.523 94.2474 151.668 93.0598 155.407 93.0598C159.102 93.0598 162.225 94.3354 164.776 96.8866L161.741 100.647C159.63 98.8 157.496 97.8763 155.341 97.8763C153.142 97.8763 151.25 98.6021 149.667 100.054C148.127 101.461 147.357 103.287 147.357 105.53C147.357 107.817 148.127 109.753 149.667 111.336C151.25 112.876 153.186 113.645 155.473 113.645C157.76 113.645 159.938 112.612 162.005 110.544L165.04 113.843C161.917 116.878 158.464 118.396 154.681 118.396C151.162 118.396 148.193 117.23 145.774 114.899C143.355 112.524 142.145 109.467 142.145 105.728ZM190.217 118H185.532V114.701C183.465 117.164 180.738 118.396 177.351 118.396C174.756 118.396 172.622 117.67 170.951 116.219C169.323 114.723 168.51 112.788 168.51 110.412C168.51 108.037 169.389 106.234 171.149 105.002C172.908 103.77 175.328 103.155 178.407 103.155H185.136V102.231C185.136 98.9759 183.311 97.3485 179.66 97.3485C177.373 97.3485 174.998 98.1842 172.534 99.8557L170.225 96.6227C173.26 94.2474 176.647 93.0598 180.386 93.0598C183.421 93.0598 185.818 93.8296 187.578 95.3691C189.337 96.8646 190.217 99.1299 190.217 102.165V118ZM185.07 106.784H179.264C175.525 106.784 173.656 107.949 173.656 110.28C173.656 111.468 174.118 112.392 175.042 113.052C175.965 113.667 177.263 113.975 178.934 113.975C180.65 113.975 182.101 113.513 183.289 112.59C184.477 111.622 185.07 110.368 185.07 108.829V106.784ZM203.816 97.6124V110.082C203.816 111.27 204.124 112.216 204.74 112.92C205.4 113.579 206.279 113.909 207.379 113.909C208.391 113.909 209.446 113.359 210.546 112.26L212.657 115.955C210.81 117.582 208.809 118.396 206.653 118.396C204.41 118.396 202.519 117.626 200.979 116.087C199.439 114.503 198.67 112.458 198.67 109.951V97.6124H195.569V93.4557H198.67V85.7361H203.816V93.4557H210.282V97.6124H203.816ZM230.637 113.777C232.88 113.777 234.728 113.03 236.179 111.534C237.675 110.038 238.423 108.103 238.423 105.728C238.423 103.353 237.675 101.417 236.179 99.9216C234.728 98.4261 232.88 97.6784 230.637 97.6784C228.394 97.6784 226.546 98.4261 225.095 99.9216C223.643 101.417 222.917 103.353 222.917 105.728C222.917 108.103 223.643 110.016 225.095 111.468C226.546 113.008 228.394 113.777 230.637 113.777ZM230.637 118.396C226.942 118.396 223.863 117.186 221.4 114.767C218.937 112.304 217.705 109.291 217.705 105.728C217.705 102.165 218.937 99.1739 221.4 96.7546C223.863 94.2914 226.942 93.0598 230.637 93.0598C234.332 93.0598 237.411 94.2914 239.874 96.7546C242.337 99.1739 243.569 102.165 243.569 105.728C243.569 109.159 242.337 112.15 239.874 114.701C237.411 117.164 234.332 118.396 230.637 118.396ZM257.123 107.443V118H251.977V93.4557H257.123V98.3381C257.959 96.7986 259.081 95.545 260.488 94.5773C261.94 93.6096 263.457 93.1038 265.041 93.0598L265.107 98.2722H264.843C262.336 98.2722 260.422 99.0859 259.103 100.713C257.783 102.341 257.123 104.584 257.123 107.443Z" fill="black"/>
<path d="M230.5 110C232.985 110 235 107.985 235 105.5C235 103.015 232.985 101 230.5 101C228.015 101 226 103.015 226 105.5C226 107.985 228.015 110 230.5 110Z" fill="#ED0000"/>
<path d="M228 89H233V95H228V89Z" fill="black"/>
<path d="M228 116H233V122H228V116Z" fill="black"/>
<path d="M220 103L220 108L214 108L214 103L220 103Z" fill="black"/>
<path d="M247 103L247 108L241 108L241 103L247 103Z" fill="black"/>
<path d="M13.8448 11.4062H26.1665V84H13.8448V11.4062ZM71.1288 11.4062C82.0154 11.4062 89.9824 13.534 95.0298 17.7897C100.176 21.9464 102.749 28.4289 102.749 37.2371C102.749 45.9464 100.176 52.3794 95.0298 56.5361C89.8834 60.5938 81.9659 62.6227 71.2773 62.6227H58.5102V84H46.1886V11.4062H71.1288ZM72.6133 51.6371C79.1453 51.6371 83.6979 50.4 86.2711 47.9258C88.9432 45.4515 90.2793 41.5423 90.2793 36.1979C90.2793 31.2495 88.7453 27.7361 85.6773 25.6577C82.6092 23.5794 77.6608 22.5402 70.8319 22.5402H58.5102V51.6371H72.6133Z" fill="black"/>
<path d="M15.564 176L12.108 163.796H13.368C14.412 167.54 15.198 170.474 15.726 172.598C15.87 173.222 15.99 173.708 16.086 174.056C16.11 173.984 16.266 173.492 16.554 172.58C16.806 171.704 17.136 170.606 17.544 169.286C17.964 167.93 18.522 166.1 19.218 163.796H20.082C20.31 164.624 20.844 166.526 21.684 169.502C22.524 172.478 22.962 174.038 22.998 174.182C23.154 173.63 23.592 171.962 24.312 169.178C24.888 166.874 25.368 165.086 25.752 163.814L26.904 163.796L23.448 176H22.386C20.682 169.976 19.746 166.67 19.578 166.082C19.506 166.31 19.398 166.652 19.254 167.108C19.218 167.228 19.158 167.426 19.074 167.702C18.99 167.978 18.876 168.35 18.732 168.818C18.588 169.274 18.45 169.718 18.318 170.15C18.27 170.294 18.024 171.074 17.58 172.49C17.148 173.906 16.794 175.076 16.518 176H15.564ZM36.7141 169.016V163.778H37.9201V176H36.7141V169.988H29.4601V176H28.2181V163.778H29.4601V169.016H36.7141ZM43.7666 165.938C43.5506 166.622 43.4126 167.078 43.3526 167.306L41.9306 171.752H46.4486L45.0266 167.306C44.7026 166.346 44.4146 165.452 44.1626 164.624C44.0546 165.02 43.9226 165.458 43.7666 165.938ZM39.3566 176L43.4246 163.778H45.0266L49.0946 176H47.8526L46.7186 172.67H41.6426L40.5806 176H39.3566ZM48.6345 164.714V163.778H57.8325V164.714H53.8725V176H52.5945V164.714H48.6345ZM72.2602 166.802L71.1262 167.054C70.9342 166.262 70.5502 165.644 69.9742 165.2C69.4102 164.756 68.6782 164.534 67.7782 164.534C66.4102 164.534 65.4202 164.978 64.8082 165.866C64.1962 166.742 63.8902 168.068 63.8902 169.844C63.8902 171.296 64.0582 172.436 64.3942 173.264C64.7542 174.14 65.3662 174.722 66.2302 175.01C66.6862 175.154 67.2082 175.226 67.7962 175.226C69.5242 175.226 70.6762 174.434 71.2522 172.85L72.2962 173.174C71.9722 174.17 71.4142 174.926 70.6222 175.442C69.8302 175.946 68.8642 176.198 67.7242 176.198C65.9842 176.198 64.6942 175.688 63.8542 174.668C63.0262 173.648 62.6122 172.04 62.6122 169.844C62.6122 165.644 64.3462 163.544 67.8142 163.544C68.9422 163.544 69.8902 163.826 70.6582 164.39C71.4382 164.942 71.9722 165.746 72.2602 166.802ZM77.5518 165.938C77.3358 166.622 77.1978 167.078 77.1378 167.306L75.7158 171.752H80.2338L78.8118 167.306C78.4878 166.346 78.1998 165.452 77.9478 164.624C77.8398 165.02 77.7078 165.458 77.5518 165.938ZM73.1418 176L77.2098 163.778H78.8118L82.8798 176H81.6378L80.5038 172.67H75.4278L74.3658 176H73.1418ZM84.3275 176V163.778H85.6955L93.2375 174.146V170.87V163.778H94.3175V176H93.2015L85.4435 165.236V168.692V176H84.3275ZM103.576 171.41L99.2921 163.778H100.606L104.188 170.312L107.752 163.778H109.066L104.782 171.41V176H103.576V171.41ZM112.451 165.452C111.899 166.016 111.545 166.868 111.389 168.008C111.305 168.5 111.263 169.1 111.263 169.808C111.263 171.716 111.551 173.096 112.127 173.948C112.715 174.8 113.693 175.226 115.061 175.226C116.441 175.226 117.419 174.806 117.995 173.966C118.583 173.114 118.877 171.734 118.877 169.826C118.877 168.446 118.715 167.36 118.391 166.568C117.995 165.656 117.395 165.056 116.591 164.768C116.171 164.612 115.661 164.534 115.061 164.534C113.909 164.534 113.039 164.84 112.451 165.452ZM118.805 164.984C119.717 165.992 120.173 167.6 120.173 169.808C120.173 172.004 119.747 173.618 118.895 174.65C118.043 175.682 116.765 176.198 115.061 176.198C113.417 176.198 112.169 175.712 111.317 174.74C110.429 173.744 109.985 172.106 109.985 169.826C109.985 167.606 110.435 165.992 111.335 164.984C112.187 164.024 113.429 163.544 115.061 163.544C116.681 163.544 117.929 164.024 118.805 164.984ZM122.169 163.778H123.501V171.014C123.501 172.058 123.627 172.892 123.879 173.516C124.143 174.236 124.647 174.722 125.391 174.974C125.811 175.106 126.279 175.172 126.795 175.172C127.815 175.172 128.589 174.92 129.117 174.416C129.573 173.984 129.861 173.306 129.981 172.382C130.029 172.034 130.053 171.578 130.053 171.014V163.778H131.349V171.14C131.349 172.892 130.977 174.176 130.233 174.992C129.489 175.796 128.325 176.198 126.741 176.198C125.181 176.198 124.029 175.796 123.285 174.992C122.541 174.188 122.169 172.928 122.169 171.212V163.778ZM145.461 164.714H138.603V169.07H144.561V170.024H138.603V176H137.361V163.778H145.461V164.714ZM147.834 176H146.628V163.778H147.834V176ZM150.369 176V163.778H151.737L159.279 174.146V170.87V163.778H160.359V176H159.243L151.485 165.236V168.692V176H150.369ZM162.831 163.778H167.043C168.795 163.778 170.115 164.222 171.003 165.11C171.903 166.022 172.353 167.6 172.353 169.844C172.353 172.748 171.579 174.596 170.031 175.388C169.263 175.796 168.249 176 166.989 176H162.831V163.778ZM164.073 164.732V175.046H166.593C168.309 175.046 169.503 174.644 170.175 173.84C170.835 173.024 171.165 171.692 171.165 169.844C171.165 168.164 170.883 166.904 170.319 166.064C169.731 165.176 168.645 164.732 167.061 164.732H164.073ZM180.496 165.452C179.944 166.016 179.59 166.868 179.434 168.008C179.35 168.5 179.308 169.1 179.308 169.808C179.308 171.716 179.596 173.096 180.172 173.948C180.76 174.8 181.738 175.226 183.106 175.226C184.486 175.226 185.464 174.806 186.04 173.966C186.628 173.114 186.922 171.734 186.922 169.826C186.922 168.446 186.76 167.36 186.436 166.568C186.04 165.656 185.44 165.056 184.636 164.768C184.216 164.612 183.706 164.534 183.106 164.534C181.954 164.534 181.084 164.84 180.496 165.452ZM186.85 164.984C187.762 165.992 188.218 167.6 188.218 169.808C188.218 172.004 187.792 173.618 186.94 174.65C186.088 175.682 184.81 176.198 183.106 176.198C181.462 176.198 180.214 175.712 179.362 174.74C178.474 173.744 178.03 172.106 178.03 169.826C178.03 167.606 178.48 165.992 179.38 164.984C180.232 164.024 181.474 163.544 183.106 163.544C184.726 163.544 185.974 164.024 186.85 164.984ZM190.214 163.778H191.546V171.014C191.546 172.058 191.672 172.892 191.924 173.516C192.188 174.236 192.692 174.722 193.436 174.974C193.856 175.106 194.324 175.172 194.84 175.172C195.86 175.172 196.634 174.92 197.162 174.416C197.618 173.984 197.906 173.306 198.026 172.382C198.074 172.034 198.098 171.578 198.098 171.014V163.778H199.394V171.14C199.394 172.892 199.022 174.176 198.277 174.992C197.534 175.796 196.37 176.198 194.786 176.198C193.226 176.198 192.074 175.796 191.33 174.992C190.586 174.188 190.214 172.928 190.214 171.212V163.778ZM200.492 164.714V163.778H209.69V164.714H205.73V176H204.452V164.714H200.492ZM21.324 187.714H14.466V192.07H20.424V193.024H14.466V199H13.224V186.778H21.324V187.714ZM23.571 187.678V192.43H26.487C27.315 192.43 27.987 192.352 28.503 192.196C29.139 192.004 29.577 191.638 29.817 191.098C29.949 190.774 30.015 190.42 30.015 190.036C30.015 189.256 29.793 188.668 29.349 188.272C29.025 187.972 28.479 187.786 27.711 187.714C27.351 187.69 27.015 187.678 26.703 187.678H23.571ZM28.611 193.204L31.455 199H30.159L27.387 193.366H23.571V199H22.347V186.778H26.775C28.359 186.778 29.499 187.036 30.195 187.552C30.903 188.068 31.257 188.89 31.257 190.018C31.257 191.662 30.375 192.724 28.611 193.204ZM35.2833 188.452C34.7313 189.016 34.3773 189.868 34.2213 191.008C34.1373 191.5 34.0953 192.1 34.0953 192.808C34.0953 194.716 34.3833 196.096 34.9593 196.948C35.5473 197.8 36.5253 198.226 37.8933 198.226C39.2733 198.226 40.2513 197.806 40.8273 196.966C41.4153 196.114 41.7093 194.734 41.7093 192.826C41.7093 191.446 41.5473 190.36 41.2233 189.568C40.8273 188.656 40.2273 188.056 39.4233 187.768C39.0033 187.612 38.4933 187.534 37.8933 187.534C36.7413 187.534 35.8713 187.84 35.2833 188.452ZM41.6373 187.984C42.5493 188.992 43.0053 190.6 43.0053 192.808C43.0053 195.004 42.5793 196.618 41.7273 197.65C40.8753 198.682 39.5973 199.198 37.8933 199.198C36.2493 199.198 35.0013 198.712 34.1493 197.74C33.2613 196.744 32.8173 195.106 32.8173 192.826C32.8173 190.606 33.2673 188.992 34.1673 187.984C35.0193 187.024 36.2613 186.544 37.8933 186.544C39.5133 186.544 40.7613 187.024 41.6373 187.984ZM45.1986 199V186.796H46.9626L50.8686 195.616L54.8826 186.796H56.4666V199H55.3686V188.344L51.3906 196.912H50.2746L46.3686 188.308V199H45.1986ZM65.7128 194.41L61.4288 186.778H62.7428L66.3248 193.312L69.8888 186.778H71.2028L66.9188 194.41V199H65.7128V194.41ZM74.588 188.452C74.036 189.016 73.682 189.868 73.526 191.008C73.442 191.5 73.4 192.1 73.4 192.808C73.4 194.716 73.688 196.096 74.264 196.948C74.852 197.8 75.83 198.226 77.198 198.226C78.578 198.226 79.556 197.806 80.132 196.966C80.72 196.114 81.014 194.734 81.014 192.826C81.014 191.446 80.852 190.36 80.528 189.568C80.132 188.656 79.532 188.056 78.728 187.768C78.308 187.612 77.798 187.534 77.198 187.534C76.046 187.534 75.176 187.84 74.588 188.452ZM80.942 187.984C81.854 188.992 82.31 190.6 82.31 192.808C82.31 195.004 81.884 196.618 81.032 197.65C80.18 198.682 78.902 199.198 77.198 199.198C75.554 199.198 74.306 198.712 73.454 197.74C72.566 196.744 72.122 195.106 72.122 192.826C72.122 190.606 72.572 188.992 73.472 187.984C74.324 187.024 75.566 186.544 77.198 186.544C78.818 186.544 80.066 187.024 80.942 187.984ZM84.3053 186.778H85.6373V194.014C85.6373 195.058 85.7633 195.892 86.0153 196.516C86.2793 197.236 86.7833 197.722 87.5273 197.974C87.9473 198.106 88.4153 198.172 88.9313 198.172C89.9513 198.172 90.7253 197.92 91.2533 197.416C91.7093 196.984 91.9973 196.306 92.1173 195.382C92.1653 195.034 92.1893 194.578 92.1893 194.014V186.778H93.4853V194.14C93.4853 195.892 93.1133 197.176 92.3693 197.992C91.6253 198.796 90.4613 199.198 88.8773 199.198C87.3173 199.198 86.1653 198.796 85.4213 197.992C84.6773 197.188 84.3053 195.928 84.3053 194.212V186.778ZM96.9597 187.678V192.43H99.8757C100.704 192.43 101.376 192.352 101.892 192.196C102.528 192.004 102.966 191.638 103.206 191.098C103.338 190.774 103.404 190.42 103.404 190.036C103.404 189.256 103.182 188.668 102.738 188.272C102.414 187.972 101.868 187.786 101.1 187.714C100.74 187.69 100.404 187.678 100.092 187.678H96.9597ZM102 193.204L104.844 199H103.548L100.776 193.366H96.9597V199H95.7357V186.778H100.164C101.748 186.778 102.888 187.036 103.584 187.552C104.292 188.068 104.646 188.89 104.646 190.018C104.646 191.662 103.764 192.724 102 193.204ZM111.588 199H110.382V186.778H111.588V199ZM115.436 187.732V192.754H117.704C118.892 192.754 119.828 192.652 120.512 192.448C121.148 192.256 121.574 191.854 121.79 191.242C121.898 190.954 121.952 190.6 121.952 190.18C121.952 189.388 121.742 188.8 121.322 188.416C120.962 188.104 120.266 187.894 119.234 187.786C118.778 187.75 118.208 187.732 117.524 187.732H115.436ZM114.122 199V186.778H117.74C119.732 186.778 121.136 187.03 121.952 187.534C122.768 188.026 123.176 188.89 123.176 190.126C123.176 191.218 122.894 192.046 122.33 192.61C121.814 193.114 120.872 193.444 119.504 193.6C118.868 193.672 118.112 193.708 117.236 193.708H115.4V199H114.122ZM131.745 188.938C131.529 189.622 131.391 190.078 131.331 190.306L129.909 194.752H134.427L133.005 190.306C132.681 189.346 132.393 188.452 132.141 187.624C132.033 188.02 131.901 188.458 131.745 188.938ZM127.335 199L131.403 186.778H133.005L137.073 199H135.831L134.697 195.67H129.621L128.559 199H127.335ZM138.521 186.778H142.733C144.485 186.778 145.805 187.222 146.693 188.11C147.593 189.022 148.043 190.6 148.043 192.844C148.043 195.748 147.269 197.596 145.721 198.388C144.953 198.796 143.939 199 142.679 199H138.521V186.778ZM139.763 187.732V198.046H142.283C143.999 198.046 145.193 197.644 145.865 196.84C146.525 196.024 146.855 194.692 146.855 192.844C146.855 191.164 146.573 189.904 146.009 189.064C145.421 188.176 144.335 187.732 142.751 187.732H139.763ZM150.228 186.778H154.44C156.192 186.778 157.512 187.222 158.4 188.11C159.3 189.022 159.75 190.6 159.75 192.844C159.75 195.748 158.976 197.596 157.428 198.388C156.66 198.796 155.646 199 154.386 199H150.228V186.778ZM151.47 187.732V198.046H153.99C155.706 198.046 156.9 197.644 157.572 196.84C158.232 196.024 158.562 194.692 158.562 192.844C158.562 191.164 158.28 189.904 157.716 189.064C157.128 188.176 156.042 187.732 154.458 187.732H151.47ZM163.159 187.678V192.43H166.075C166.903 192.43 167.575 192.352 168.091 192.196C168.727 192.004 169.165 191.638 169.405 191.098C169.537 190.774 169.603 190.42 169.603 190.036C169.603 189.256 169.381 188.668 168.937 188.272C168.613 187.972 168.067 187.786 167.299 187.714C166.939 187.69 166.603 187.678 166.291 187.678H163.159ZM168.199 193.204L171.043 199H169.747L166.975 193.366H163.159V199H161.935V186.778H166.363C167.947 186.778 169.087 187.036 169.783 187.552C170.491 188.068 170.845 188.89 170.845 190.018C170.845 191.662 169.963 192.724 168.199 193.204ZM180.865 199H172.675V186.778H180.775V187.714H173.917V191.998H179.875V192.97H173.917V198.064H180.865V199ZM190.392 188.722L189.51 189.388C189.186 188.824 188.742 188.386 188.178 188.074C187.626 187.762 187.008 187.606 186.324 187.606C185.412 187.606 184.692 187.774 184.164 188.11C183.636 188.446 183.372 188.938 183.372 189.586C183.372 190.078 183.57 190.492 183.966 190.828C184.314 191.116 184.782 191.356 185.37 191.548C185.454 191.572 185.7 191.656 186.108 191.8C186.528 191.932 186.81 192.022 186.954 192.07C187.326 192.226 187.632 192.352 187.872 192.448C188.46 192.688 188.958 192.94 189.366 193.204C189.786 193.48 190.104 193.822 190.32 194.23C190.548 194.662 190.662 195.16 190.662 195.724C190.662 196.804 190.254 197.656 189.438 198.28C188.622 198.892 187.518 199.198 186.126 199.198C185.298 199.198 184.518 199.048 183.786 198.748C182.91 198.388 182.274 197.872 181.878 197.2C181.626 196.804 181.458 196.366 181.374 195.886L182.4 195.436C182.892 197.248 184.164 198.154 186.216 198.154C186.864 198.154 187.452 198.046 187.98 197.83C188.58 197.602 188.988 197.23 189.204 196.714C189.324 196.462 189.384 196.144 189.384 195.76C189.384 195.412 189.294 195.034 189.114 194.626C189.042 194.494 188.904 194.356 188.7 194.212C188.472 194.068 188.316 193.96 188.232 193.888C188.1 193.804 187.626 193.6 186.81 193.276C186.654 193.228 186.348 193.12 185.892 192.952C185.808 192.94 185.748 192.922 185.712 192.898C185.208 192.718 184.83 192.58 184.578 192.484C184.338 192.388 184.038 192.25 183.678 192.07C183.33 191.89 183.066 191.722 182.886 191.566C182.718 191.398 182.556 191.188 182.4 190.936C182.256 190.684 182.16 190.402 182.112 190.09C182.1 190.006 182.094 189.868 182.094 189.676C182.094 188.656 182.514 187.882 183.354 187.354C184.134 186.862 185.07 186.616 186.162 186.616C188.106 186.616 189.516 187.318 190.392 188.722ZM200.552 188.722L199.67 189.388C199.346 188.824 198.902 188.386 198.338 188.074C197.786 187.762 197.168 187.606 196.484 187.606C195.572 187.606 194.852 187.774 194.324 188.11C193.796 188.446 193.532 188.938 193.532 189.586C193.532 190.078 193.73 190.492 194.126 190.828C194.474 191.116 194.942 191.356 195.53 191.548C195.614 191.572 195.86 191.656 196.268 191.8C196.688 191.932 196.97 192.022 197.114 192.07C197.486 192.226 197.792 192.352 198.032 192.448C198.62 192.688 199.118 192.94 199.526 193.204C199.946 193.48 200.264 193.822 200.48 194.23C200.708 194.662 200.822 195.16 200.822 195.724C200.822 196.804 200.414 197.656 199.598 198.28C198.782 198.892 197.678 199.198 196.286 199.198C195.458 199.198 194.678 199.048 193.946 198.748C193.07 198.388 192.434 197.872 192.038 197.2C191.786 196.804 191.618 196.366 191.534 195.886L192.56 195.436C193.052 197.248 194.324 198.154 196.376 198.154C197.024 198.154 197.612 198.046 198.14 197.83C198.74 197.602 199.148 197.23 199.364 196.714C199.484 196.462 199.544 196.144 199.544 195.76C199.544 195.412 199.454 195.034 199.274 194.626C199.202 194.494 199.064 194.356 198.86 194.212C198.632 194.068 198.476 193.96 198.392 193.888C198.26 193.804 197.786 193.6 196.97 193.276C196.814 193.228 196.508 193.12 196.052 192.952C195.968 192.94 195.908 192.922 195.872 192.898C195.368 192.718 194.99 192.58 194.738 192.484C194.498 192.388 194.198 192.25 193.838 192.07C193.49 191.89 193.226 191.722 193.046 191.566C192.878 191.398 192.716 191.188 192.56 190.936C192.416 190.684 192.32 190.402 192.272 190.09C192.26 190.006 192.254 189.868 192.254 189.676C192.254 188.656 192.674 187.882 193.514 187.354C194.294 186.862 195.23 186.616 196.322 186.616C198.266 186.616 199.676 187.318 200.552 188.722ZM204.232 197.2H205.6V199H204.232V197.2ZM207.418 188.254C207.022 187.738 206.344 187.48 205.384 187.48C204.148 187.48 203.164 188.044 202.432 189.172L201.604 188.578C202.456 187.222 203.746 186.544 205.474 186.544C206.734 186.544 207.688 186.898 208.336 187.606C208.888 188.242 209.164 188.998 209.164 189.874C209.164 190.702 208.912 191.47 208.408 192.178C208.12 192.586 207.862 192.928 207.634 193.204C206.722 194.332 206.044 195.268 205.6 196.012H204.376C205.036 194.788 205.732 193.762 206.464 192.934C207.172 192.118 207.61 191.464 207.778 190.972C207.898 190.66 207.958 190.306 207.958 189.91C207.958 189.298 207.778 188.746 207.418 188.254Z" fill="black"/>
</svg>
